PathFileType	4	(X/Y/Z)	D:\TRACE\v60_Jaco2_6-2-23\JustBodyDRS_Motion3_6-v60.trc
DataRate	CameraRate	NumFrames	NumMarkers	Units	OrigDataRate	OrigDataStartFrame	OrigNumFrames
100.00	100.00	      14	9	mm	100.00	3501	      7000
Frame#	Time	front left toe			Front right toe			aft left toe			aft right toe			Arm			FL body			FR body			AL Body			AR Body			
		X1	Y1	Z1	X2	Y2	Z2	X3	Y3	Z3	X4	Y4	Z4	X5	Y5	Z5	X6	Y6	Z6	X7	Y7	Z7	X8	Y8	Z8	X9	Y9	Z9	

3501	35.000	-185.52509	146.66916	-208.67145	187.50708	19.71606	-220.05499	-181.60590	8.18159	410.50992	194.80925	132.33449	407.83801	4.57788	1180.36414	-260.67682	-84.98057	537.20282	-376.70358	73.92964	539.92194	-379.05548	-62.90885	533.33051	567.63690	88.73615	527.12372	565.69000	
3502	35.010	-185.42084	142.00587	-205.94234	187.54848	19.68828	-220.00883	-181.67935	8.22663	410.34778	195.30116	128.52438	411.19452	6.10900	1180.14441	-260.15692	-84.56475	536.97235	-376.20190	74.14162	539.83008	-378.63422	-63.60321	533.42358	567.99597	88.08077	527.35272	566.35986	
3503	35.020	-185.17709	136.51837	-202.99567	187.59412	19.65579	-219.85156	-182.25591	8.56475	410.41635	195.59834	123.30051	414.97507	7.12220	1180.13391	-259.75171	-84.09161	536.78998	-375.48727	74.53481	539.71393	-378.09952	-64.11681	533.86902	568.59503	87.70832	527.55554	566.89966	
3504	35.030	-184.25522	130.23465	-200.51978	187.60075	19.55322	-219.84084	-182.28189	8.53334	410.46396	194.01038	117.01104	417.52444	7.40303	1180.24341	-259.67480	-83.63923	536.69641	-374.98441	74.98798	539.70050	-377.51703	-64.54144	534.00281	568.96698	87.00915	527.71332	567.44171	
3505	35.040	-183.55095	123.20753	-198.37573	187.74408	19.52482	-219.69604	-182.27942	8.53924	410.46774	193.89299	110.23664	420.13474	7.61130	1180.23608	-259.43491	-83.24653	536.98663	-374.88831	74.97726	539.57294	-376.67184	-64.53529	534.27917	569.60144	86.15639	527.65234	567.88385	
3506	35.050	-183.51115	115.73495	-196.97124	187.75975	19.47042	-219.61235	-182.33641	8.61632	410.32559	194.13043	102.17830	422.46552	7.67403	1180.20288	-259.19412	-82.62511	537.10974	-374.66495	75.71676	539.43054	-376.19519	-64.64742	534.27777	569.91296	85.92406	527.64636	568.44476	
3507	35.060	-184.00107	108.03611	-195.60231	187.82552	19.43740	-219.58771	-182.39578	8.68050	410.26166	194.23363	94.07166	424.35138	7.72397	1180.29810	-258.82123	-82.01314	537.14191	-374.55472	76.19629	539.40192	-375.96176	-65.02768	534.17181	570.05487	85.63415	527.67053	568.77618	
3508	35.070	-184.20355	100.07690	-194.49866	187.91145	19.40664	-219.56795	-182.03264	8.34771	410.13217	194.52425	85.61832	425.74142	8.23459	1180.41797	-258.50879	-81.45238	537.18628	-374.26831	76.69097	539.35919	-375.55350	-65.46420	534.23621	570.27777	85.36425	527.68201	569.06305	
3509	35.080	-184.07803	91.41162	-193.14821	186.30809	19.00788	-219.75128	-182.11205	8.33112	410.21100	194.49261	76.73141	427.08035	8.90697	1180.49707	-258.30527	-80.94585	536.98181	-374.13400	78.14353	539.06165	-375.27600	-66.03851	534.12610	570.49420	85.04825	527.54474	569.37506	
3510	35.090	-183.31284	82.15742	-191.76485	186.32071	19.00920	-219.70857	-182.05949	8.27512	410.19824	194.41647	67.41640	428.51715	10.17511	1180.31445	-258.03616	-80.44198	536.90094	-374.00058	78.63031	539.13806	-375.03424	-66.29886	534.01941	570.71838	85.01331	527.41638	569.63733	
3511	35.100	-183.16019	72.69613	-190.64607	186.35867	18.95500	-219.70245	-182.06465	8.34478	410.19760	194.91527	58.37791	429.43350	11.25164	1180.20740	-257.59479	-79.92782	536.93713	-373.82410	78.85402	539.27661	-374.89560	-66.11909	534.19531	570.57306	85.03550	527.32977	569.76501	
3512	35.110	-182.92122	62.59059	-189.86147	186.38446	18.92411	-219.67702	-182.07596	8.42627	410.06506	195.12285	49.47058	429.60764	12.06280	1180.29871	-257.42596	-79.58334	537.25110	-373.82321	79.22006	539.36450	-374.77228	-66.28037	534.27258	570.70428	84.95538	527.30243	569.87579	
3513	35.120	-182.71921	53.36630	-189.59558	186.36266	18.79598	-219.71242	-182.05292	8.43411	409.95474	194.97446	40.88711	428.84387	12.95087	1180.29602	-257.25421	-78.94889	537.28381	-373.67911	79.73082	539.37183	-374.67285	-66.39574	534.32233	570.69373	85.03877	527.20380	570.01984	
3514	35.130	-183.35017	45.92458	-190.46916	186.27193	18.58816	-219.80098	-182.24857	8.49708	409.92664	195.06819	32.74899	427.69336	13.57528	1180.26685	-257.15506	-78.36616	537.28839	-373.47882	79.75175	539.29736	-374.44266	-66.48881	534.27948	570.81671	85.03326	527.06506	570.16968	
